<svg width="64" height="44" viewBox="0 0 64 44" fill="none" xmlns="http://www.w3.org/2000/svg">
<path d="M36.3626 10.4654C37.459 9.37332 38.1442 7.82627 38.1442 6.14271C38.1442 2.73009 35.4033 0 31.9772 0C29.8301 0 27.9115 1.09204 26.8151 2.77559C26.541 3.0486 2.00999 33.1706 1.78158 33.5346C0.685225 34.6267 0 36.1737 0 37.8573C0 41.2699 2.7409 44 6.16702 44C8.31406 44 10.2327 42.908 11.329 41.2244C11.6031 40.9514 36.1342 10.8294 36.3626 10.4654Z" fill="#333333"/>
<path d="M50.5696 24.7528C51.666 23.6608 52.3512 22.1137 52.3512 20.4302C52.3512 17.0176 49.6103 14.2875 46.1842 14.2875C44.0371 14.2875 42.1185 15.3795 41.0221 17.0631C40.7481 17.3361 27.8658 33.1706 27.6374 33.5346C26.5411 34.6267 25.8558 36.1737 25.8558 37.8573C25.8558 41.2699 28.5967 44 32.0229 44C34.1699 44 36.0885 42.9079 37.1849 41.2244C37.459 40.9514 50.3412 25.1168 50.5696 24.7528Z" fill="#333333"/>
<path d="M64 6.14271C64 9.55533 61.2591 12.2854 57.833 12.2854C54.4069 12.2854 51.666 9.55533 51.666 6.14271C51.666 2.73009 54.4069 0 57.833 0C61.2591 0 64 2.73009 64 6.14271Z" fill="#333333"/>
<path d="M12.334 6.14271C12.334 9.55533 9.59315 12.2854 6.16702 12.2854C2.7409 12.2854 0 9.50982 0 6.14271C0 2.73009 2.7409 0 6.16702 0C9.54747 0 12.334 2.73009 12.334 6.14271Z" fill="#333333"/>
</svg>
