<svg width="20" height="19" viewBox="0 0 20 19" fill="none" xmlns="http://www.w3.org/2000/svg">
<path d="M19.25 12.3684C19.25 13.8131 18.156 15.273 16.3088 16.4206C14.4906 17.5501 12.1268 18.25 10 18.25C7.87317 18.25 5.50945 17.5501 3.69122 16.4206C1.84398 15.273 0.75 13.8131 0.75 12.3684C0.75 10.9237 1.84398 9.46378 3.69122 8.31624C5.50945 7.18672 7.87317 6.48682 10 6.48682C12.1268 6.48682 14.4906 7.18672 16.3088 8.31624C18.156 9.46378 19.25 10.9237 19.25 12.3684Z" stroke="#4EA9FD" stroke-width="1.5"/>
<path d="M12.6067 12.3684C12.6067 13.7768 11.4483 14.9342 10 14.9342C8.55172 14.9342 7.39337 13.7768 7.39337 12.3684C7.39337 10.96 8.55172 9.80261 10 9.80261C11.4483 9.80261 12.6067 10.96 12.6067 12.3684Z" stroke="#4EA9FD" stroke-width="1.5"/>
<path d="M10 3.84211V1" stroke="#4EA9FD" stroke-width="1.5" stroke-linecap="round"/>
<path d="M17.5 6.49381L18.8636 4.03247" stroke="#4EA9FD" stroke-width="1.5" stroke-linecap="round"/>
<path d="M2.27275 6.3035L0.909119 3.84216" stroke="#4EA9FD" stroke-width="1.5" stroke-linecap="round"/>
</svg>
