<svg width="19" height="18" viewBox="0 0 19 18" fill="none" xmlns="http://www.w3.org/2000/svg">
<g clip-path="url(#clip0_34_423)">
<path d="M4.48918 10.8776L3.86262 13.2166L1.57258 13.2651C0.888195 11.9957 0.5 10.5433 0.5 8.99998C0.5 7.50756 0.862953 6.10018 1.50631 4.86096H1.5068L3.54559 5.23474L4.43869 7.26129C4.25177 7.80625 4.14989 8.39125 4.14989 8.99998C4.14996 9.66063 4.26963 10.2936 4.48918 10.8776Z" fill="#FBBB00"/>
<path d="M18.3427 7.31903C18.4461 7.86346 18.5 8.42571 18.5 9.00034C18.5 9.64469 18.4323 10.2732 18.3032 10.8795C17.8651 12.9426 16.7203 14.744 15.1344 16.0189L15.1339 16.0184L12.566 15.8873L12.2025 13.6185C13.2548 13.0014 14.0772 12.0356 14.5104 10.8795H9.69786V7.31903H14.5806H18.3427Z" fill="#518EF8"/>
<path d="M15.1339 16.0177L15.1344 16.0182C13.5921 17.2579 11.6328 17.9997 9.5 17.9997C6.07259 17.9997 3.09271 16.084 1.57259 13.2648L4.48918 10.8773C5.24923 12.9058 7.20599 14.3497 9.5 14.3497C10.486 14.3497 11.4098 14.0832 12.2025 13.6179L15.1339 16.0177Z" fill="#28B446"/>
<path d="M15.2447 2.07197L12.3291 4.45894C11.5087 3.94615 10.5389 3.64992 9.5 3.64992C7.15406 3.64992 5.1607 5.16013 4.43874 7.26131L1.50681 4.86098H1.50632C3.00418 1.97307 6.02165 0 9.5 0C11.6837 0 13.686 0.777867 15.2447 2.07197Z" fill="#F14336"/>
</g>
<defs>
<clipPath id="clip0_34_423">
<rect width="18" height="18" fill="white" transform="translate(0.5)"/>
</clipPath>
</defs>
</svg>
