<svg width="18" height="18" viewBox="0 0 18 18" fill="none" xmlns="http://www.w3.org/2000/svg">
<path fill-rule="evenodd" clip-rule="evenodd" d="M2.25 0H15.75C16.9905 0 18 1.00875 18 2.25V15.75C18 16.9905 16.9905 18 15.75 18H2.25C1.00875 18 0 16.9905 0 15.75V2.25C0 1.00875 1.00875 0 2.25 0ZM12.375 6.74999V8.99999H15.1875L14.0625 11.8125H12.375V18H9V11.8125H6.75V8.99999H9V6.74999C9 4.88549 10.5105 3.37499 12.375 3.37499H14.625V6.18749H13.5C13.4498 6.18749 13.4004 6.18711 13.3519 6.18674C12.8008 6.18248 12.375 6.17918 12.375 6.74999Z" fill="white"/>
</svg>
